<?xml version="1.0" encoding="utf-8"?>
<!-- Generator: Adobe Illustrator 16.0.0, SVG Export Plug-In . SVG Version: 6.00 Build 0)  -->
<!DOCTYPE svg PUBLIC "-//W3C//DTD SVG 1.1//EN" "http://www.w3.org/Graphics/SVG/1.1/DTD/svg11.dtd">
<svg version="1.1" id="图层_1" xmlns="http://www.w3.org/2000/svg" xmlns:xlink="http://www.w3.org/1999/xlink" x="0px" y="0px"
	 width="841.89px" height="595.28px" viewBox="0 0 841.89 595.28" enable-background="new 0 0 841.89 595.28" xml:space="preserve">
<circle fill="none" stroke="#87BED3" stroke-width="3" stroke-miterlimit="10" cx="2759.396" cy="2.8" r="141.316"/>
<g>
	<path fill="#87BED3" d="M2747.746-43.777v-17.939c0-7.129-5.832-12.961-12.96-12.961h-10.156h-9.914
		c-7.129,0-12.961,5.833-12.961,12.961v17.939h22.875H2747.746z"/>
	<path fill="#87BED3" d="M2771.588-51.858c-0.264-1.354-0.398-2.732-0.398-4.131s0.135-2.779,0.398-4.132
		c-2.604,0.845-5.753,1.339-9.146,1.339c-3.631,0-6.982-0.564-9.684-1.521v8.627c2.701-0.957,6.053-1.522,9.684-1.522
		C2765.835-53.199,2768.983-52.704,2771.588-51.858z"/>
	<path fill="#87BED3" d="M2747.746-36.23L2747.746-36.23L2747.746-36.23h-23.116h-22.875c-28.446,9.592-48.931,36.49-48.931,68.173
		c0,24.303,12.057,45.787,30.511,58.807v0.102h0.145h12.721h28.43h28.432h9.475h3.484c8.266-5.799,15.254-13.296,20.461-21.982
		c6.475-10.793,10.197-23.426,10.197-36.927c0-13.503-3.725-26.134-10.197-36.929C2777.768-19.522,2764.069-30.725,2747.746-36.23z
		 M2764.593,83.741h-39.963h-39.961c-3.559-2.738-6.828-5.832-9.754-9.23h49.715h49.717
		C2771.419,77.909,2768.15,81.003,2764.593,83.741z M2786.481,53.599c-1.729,4.892-4.023,9.518-6.803,13.802h-55.049h-55.047
		c-6.667-10.269-10.541-22.517-10.541-35.671c0-28.088,17.655-52.045,42.473-61.395h23.115h23.116
		c18.042,6.797,32.298,21.317,38.735,39.532c2.419,6.839,3.738,14.195,3.738,21.863S2788.901,46.759,2786.481,53.599z"/>
	<path fill="#87BED3" d="M2821.128-85.25c-13.955,0-26.422,4.16-34.646,10.684c-6.369,5.052-10.192,11.522-10.192,18.577
		c0,7.052,3.823,13.523,10.192,18.575c8.225,6.524,20.691,10.684,34.646,10.684c24.764,0,44.84-13.1,44.84-29.259
		C2865.968-72.15,2845.892-85.25,2821.128-85.25z"/>
</g>
</svg>
